# xmcd CD database file
#
# Track frame offsets:
#	150
#	4477
#	6372
#	9039
#	14196
#	19066
#	23951
#	29082
#	33739
#	37223
#	40439
#	47452
#	51888
#	52683
#	54321
#	55730
#	65228
#	66569
#	76086
#	78921
#	92001
#	93218
#	101124
#	107566
#	113819
#	115844
#
# Disc length: 1571 seconds
#
# Revision: 0
# Processed by: cddbd v1.5.2PL0 Copyright (c) Steve Scherf et al.
# Submitted via: CDex 1.51
#
DISCID=5806211a
DTITLE=Jim Ferguson - All Solos And Grooves For Jazz Guitar
DYEAR=2001
DGENRE=Jazz
TTITLE0=C Major A-Form 1
TTITLE1=C Major A-Form 2
TTITLE2=2-Note Patterns
TTITLE3=4-Note Pattern 1
TTITLE4=4-Note Pattern 2
TTITLE5=4-Note Pattern 3
TTITLE6=4-Note Pattern 4
TTITLE7=4-Note Pattern 5
TTITLE8=3-Note Triplet Pattern 1
TTITLE9=3-Note Triplet Pattern 2
TTITLE10=6-Note Patterns
TTITLE11=Modifying Patterns
TTITLE12=What's Hip - Pattern Usage 1
TTITLE13=What's Hip - Pattern Usage 2
TTITLE14=C-Form And Walking Groove
TTITLE15=Jimmy's Swing
TTITLE16=A-Form And Samba Groove
TTITLE17=Slippery Samba
TTITLE18=G-Form And Ballad Feel
TTITLE19=Soft Landing
TTITLE20=E-Form And Pedal Vamp
TTITLE21=Lenny's Groove
TTITLE22=Bonny Bossa - Accompaniment
TTITLE23=Bonny Bossa - Head
TTITLE24=Dorian
TTITLE25=Myxolydian
EXTD=YEAR: 2001
EXTT0=
EXTT1=
EXTT2=
EXTT3=
EXTT4=
EXTT5=
EXTT6=
EXTT7=
EXTT8=
EXTT9=
EXTT10=
EXTT11=
EXTT12=
EXTT13=
EXTT14=
EXTT15=
EXTT16=
EXTT17=
EXTT18=
EXTT19=
EXTT20=
EXTT21=
EXTT22=
EXTT23=
EXTT24=
EXTT25=
PLAYORDER=
